<svg width="33" height="33" fill="none" xmlns="http://www.w3.org/2000/svg"><ellipse cx="21.704" cy="11.33" rx="1.087" ry="1.085" fill="#fff"/><ellipse cx="10.831" cy="11.33" rx="1.087" ry="1.085" fill="#fff"/><ellipse cx="10.831" cy="24.351" rx="1.087" ry="1.085" fill="#fff"/><ellipse cx="16.268" cy="26.521" rx="1.087" ry="1.085" fill="#fff"/><ellipse cx="7.569" cy="17.775" rx="1.087" ry="1.085" fill="#fff"/><ellipse cx="24.966" cy="17.775" rx="1.087" ry="1.085" fill="#fff"/><ellipse cx="21.704" cy="24.351" rx="1.087" ry="1.085" fill="#fff"/><mask id="a" fill="#fff"><path fill-rule="evenodd" clip-rule="evenodd" d="M21.422 29.058a1.058 1.058 0 011.216.196l1.826 1.875a.682.682 0 00.977-.95l-1.357-1.394c-.426-.438-.361-1.15.098-1.552 2.642-2.314 4.318-5.764 4.318-9.619C28.5 10.648 23.023 5 16.268 5 9.512 5 4.036 10.648 4.036 17.614c0 3.815 1.641 7.234 4.236 9.547.452.403.513 1.11.09 1.544l-1.434 1.473a.682.682 0 10.976.951l1.88-1.93a1.058 1.058 0 011.226-.191 11.878 11.878 0 005.258 1.221c1.841 0 3.587-.42 5.154-1.17zm-5.154-.23c6.005 0 10.873-5.02 10.873-11.213S22.273 6.402 16.268 6.402c-6.005 0-10.873 5.02-10.873 11.212 0 6.193 4.868 11.213 10.873 11.213zm-.76-11.53V9.94a.781.781 0 111.563 0v8.183c0 .443-.36.803-.803.803a.76.76 0 01-.76-.76v-.868z"/></mask><path fill-rule="evenodd" clip-rule="evenodd" d="M21.422 29.058a1.058 1.058 0 011.216.196l1.826 1.875a.682.682 0 00.977-.95l-1.357-1.394c-.426-.438-.361-1.15.098-1.552 2.642-2.314 4.318-5.764 4.318-9.619C28.5 10.648 23.023 5 16.268 5 9.512 5 4.036 10.648 4.036 17.614c0 3.815 1.641 7.234 4.236 9.547.452.403.513 1.11.09 1.544l-1.434 1.473a.682.682 0 10.976.951l1.88-1.93a1.058 1.058 0 011.226-.191 11.878 11.878 0 005.258 1.221c1.841 0 3.587-.42 5.154-1.17zm-5.154-.23c6.005 0 10.873-5.02 10.873-11.213S22.273 6.402 16.268 6.402c-6.005 0-10.873 5.02-10.873 11.212 0 6.193 4.868 11.213 10.873 11.213zm-.76-11.53V9.94a.781.781 0 111.563 0v8.183c0 .443-.36.803-.803.803a.76.76 0 01-.76-.76v-.868z" fill="#fff"/><path d="M9.784 29.199l2.865 2.79-2.865-2.79zm1.226-.191l1.765-3.59-1.765 3.59zm-3.106 2.121L5.04 28.34l2.865 2.79zm-.976-.95l2.865 2.79-2.865-2.79zm17.156-1.394l-2.865 2.79 2.865-2.79zm.098-1.552l-2.635-3.009 2.635 3.01zm-15.91-.072L5.61 30.146l2.662-2.985zm.09 1.544l-2.866-2.79 2.866 2.79zm17.079 1.473l2.866-2.79-2.866 2.79zm-.977.951l2.866-2.79-2.866 2.79zm-1.825-1.875l-2.866 2.79 2.866-2.79zm-1.217-.196l-1.73-3.606 1.73 3.606zm-1.65 2.987L21.6 33.92l5.731-5.582-1.826-1.874-5.731 5.58zm8.535-4.658l-1.357-1.393-5.731 5.582 1.356 1.393 5.732-5.582zm-1.49 2.855c3.49-3.056 5.683-7.595 5.683-12.628h-8c0 2.677-1.16 5.04-2.953 6.61l5.27 6.018zM32.5 17.614C32.5 8.556 25.348 1 16.268 1v8c4.431 0 8.232 3.74 8.232 8.614h8zM16.268 1C7.188 1 .036 8.556.036 17.614h8c0-4.874 3.8-8.614 8.232-8.614V1zM.036 17.614c0 4.98 2.147 9.477 5.574 12.532l5.324-5.97c-1.762-1.572-2.898-3.913-2.898-6.561h-8zm5.46 8.3l-1.434 1.473 5.731 5.582 1.434-1.473-5.73-5.581zm5.274 8.006l1.88-1.93-5.732-5.582-1.88 1.93 5.732 5.582zm-1.525-1.323a15.878 15.878 0 007.023 1.632v-8a7.879 7.879 0 01-3.493-.811l-3.53 7.18zm7.023 1.632c2.456 0 4.792-.56 6.884-1.565l-3.46-7.212a7.886 7.886 0 01-3.424.777v8zm0-1.402c8.33 0 14.873-6.928 14.873-15.212h-8c0 4.1-3.192 7.212-6.873 7.212v8zM31.14 17.615c0-8.285-6.544-15.213-14.873-15.213v8c3.68 0 6.873 3.112 6.873 7.213h8zM16.268 2.402c-8.33 0-14.873 6.928-14.873 15.212h8c0-4.1 3.192-7.212 6.873-7.212v-8zM1.395 17.614c0 8.285 6.544 15.213 14.873 15.213v-8c-3.68 0-6.873-3.112-6.873-7.213h-8zm11.676-.316v.543h8v-.543h-8zm0 .543v.282h8v-.282h-8zm6.437.325v-.325h-8v.325h8zm0-.325v-.543h-8v.543h8zm0-.543V13.5h-8v3.798h8zm0-3.798V9.94h-8v3.56h8zm-6.437-3.56v3.56h8V9.94h-8zm0 3.56v3.798h8V13.5h-8zm3.219-8.34a4.781 4.781 0 00-4.782 4.78h8a3.219 3.219 0 01-3.218 3.22v-8zm-3.22 12.963a3.197 3.197 0 013.198-3.197v8a4.803 4.803 0 004.803-4.803h-8zm-.42 13.867a2.943 2.943 0 01-3.405.607l3.53-7.179c-1.826-.898-4.227-.683-5.857.99l5.731 5.582zm-8.588 1.93a4.682 4.682 0 006.708 0l-5.731-5.582a3.318 3.318 0 014.754 0L4.062 33.92zm0-6.533a4.682 4.682 0 000 6.533l5.731-5.582a3.318 3.318 0 010 4.63l-5.731-5.58zm22.888-1.393c1.343 1.38.944 3.305-.133 4.248l-5.27-6.018c-1.995 1.748-2.523 5.098-.328 7.352l5.731-5.582zM16.29 13.16a3.219 3.219 0 01-3.22-3.22h8a4.78 4.78 0 00-4.78-4.78v8zM5.61 30.146c-1.064-.948-1.447-2.862-.114-4.231l5.731 5.581c2.18-2.238 1.675-5.565-.293-7.32l-5.324 5.97zm22.697 3.774a4.682 4.682 0 000-6.533l-5.732 5.582a3.318 3.318 0 010-4.63l5.732 5.58zm-6.708 0a4.682 4.682 0 006.708 0l-5.732-5.582a3.318 3.318 0 014.755 0L21.6 33.92zm-5.331-18.994a3.24 3.24 0 013.24 3.24h-8a4.76 4.76 0 004.76 4.76v-8zm9.236 11.538c-1.616-1.66-3.992-1.886-5.813-1.012l3.46 7.212a2.943 2.943 0 01-3.378-.62l5.731-5.58z" fill="#fff" mask="url(#a)"/><path fill="#fff" d="M15.5 6V2H17v4z"/><rect x="8.5" y="2" width="15.5" height="1.5" rx=".75" fill="#fff"/></svg>