<svg width="151" height="38" viewBox="0 0 151 38" fill="none" xmlns="http://www.w3.org/2000/svg">
<path d="M50.2238 29.4945C49.3364 28.1681 48.9121 26.5814 49.0178 24.9848V18.468C48.9059 16.8596 49.3238 15.2589 50.2065 13.9148C51.0047 12.8779 52.3686 12.3624 54.2981 12.3682C56.2276 12.374 57.534 12.8287 58.2174 13.7324C59.0507 14.8522 59.4572 16.2368 59.3631 17.6338V19.1631H55.7969V17.5035C55.7921 17.0668 55.7547 16.6311 55.6849 16.2001C55.6418 15.8881 55.4998 15.5985 55.2801 15.3746C55.1445 15.2573 54.987 15.1684 54.8169 15.1132C54.6468 15.058 54.4675 15.0376 54.2895 15.0531C54.0338 15.0146 53.7726 15.0565 53.5414 15.1731C53.3102 15.2898 53.1203 15.4754 52.9974 15.7048C52.7709 16.315 52.6712 16.9657 52.7045 17.6164V25.8885C52.6652 26.5435 52.7804 27.1986 53.0405 27.8001C53.1648 28.0171 53.3492 28.1927 53.5711 28.3054C53.793 28.4181 54.0427 28.463 54.2895 28.4344C54.532 28.469 54.7792 28.4255 54.9957 28.31C55.2123 28.1946 55.3872 28.0131 55.4954 27.7914C55.7038 27.1801 55.7944 26.5342 55.7625 25.8885V24.1507H59.3286V25.6539C59.4336 27.0715 59.0602 28.4832 58.2691 29.6596C57.5111 30.6154 56.2018 31.0846 54.3412 31.0846C52.4806 31.0846 51.0248 30.5633 50.2238 29.4945Z" fill="#111111"/>
<path d="M64.2219 12.6201H68.3048L71.7504 30.8674H68.3565L67.7449 26.8356H64.8851L64.196 30.8413H60.7505L64.2219 12.6201ZM67.3659 24.5417L66.2806 17.208L65.2039 24.5417H67.3659Z" fill="#111111"/>
<path d="M74.3954 15.3659H71.6045V12.6201H80.8385V15.3659H78.0821V30.8413H74.3868L74.3954 15.3659Z" fill="#111111"/>
<path d="M88.0836 12.6201H95.0867V14.5144H90.6075V20.536H94.2425V22.3346H90.6075V29.0166H95.1297V30.8413H88.0836V12.6201Z" fill="#444444"/>
<path d="M97.1631 12.6201H98.8859L104.054 24.7241V12.6201H106.156V30.8674H104.545L99.3769 18.4245V30.8413H97.2406L97.1631 12.6201Z" fill="#444444"/>
<path d="M108.939 12.6201H115.933V14.5144H111.454V20.536H115.124V22.3346H111.489V29.0166H115.985V30.8413H108.939V12.6201Z" fill="#444444"/>
<path d="M118.01 12.6201H121.645C123.077 12.5039 124.504 12.9075 125.667 13.7584C126.529 14.5144 126.951 15.7482 126.951 17.46C126.951 19.7771 126.207 21.1935 124.72 21.709L127.304 30.8413H124.858L122.489 22.2912H120.533V30.8413H118.01V12.6201ZM121.455 20.4404C122.285 20.5214 123.115 20.2858 123.781 19.78C124.052 19.4569 124.254 19.0812 124.375 18.6763C124.497 18.2713 124.535 17.8456 124.487 17.4253C124.505 16.8357 124.42 16.2477 124.237 15.6874C124.163 15.4808 124.049 15.2913 123.901 15.1301C123.753 14.969 123.575 14.8393 123.376 14.749C122.817 14.5176 122.214 14.4137 121.61 14.4449H120.499V20.4751L121.455 20.4404Z" fill="#444444"/>
<path d="M130.345 29.4945C129.522 28.0926 129.14 26.4714 129.251 24.8458V18.7634C129.222 17.5896 129.367 16.418 129.682 15.2877C129.931 14.438 130.46 13.6992 131.181 13.1936C132.052 12.6642 133.06 12.41 134.075 12.4637C134.732 12.4007 135.394 12.4832 136.016 12.7053C136.638 12.9274 137.204 13.2839 137.676 13.7497C138.502 14.9176 138.893 16.3426 138.778 17.7728V18.4506H136.409V17.8858C136.426 17.2103 136.374 16.5348 136.254 15.8699C136.176 15.4437 135.942 15.0626 135.6 14.8011C135.153 14.5349 134.636 14.4108 134.118 14.4449C133.555 14.3963 132.996 14.5709 132.559 14.9315C132.202 15.2734 131.968 15.7261 131.896 16.2175C131.787 16.9332 131.738 17.657 131.749 18.3811V25.1499C131.681 26.1785 131.855 27.2088 132.258 28.1564C132.491 28.4478 132.788 28.6814 133.125 28.8395C133.462 28.9975 133.83 29.0757 134.202 29.0682C134.573 29.0606 134.938 28.9675 135.269 28.7959C135.599 28.6243 135.886 28.3788 136.108 28.0782C136.523 27.076 136.703 25.9905 136.633 24.9066V23.6206H134.342V21.822H138.907V30.8413H137.348L137.099 28.7472C136.901 29.4429 136.476 30.0508 135.893 30.472C135.31 30.8933 134.602 31.103 133.886 31.0672C133.212 31.1272 132.534 31.0144 131.915 30.7395C131.296 30.4645 130.756 30.0363 130.345 29.4945Z" fill="#444444"/>
<path d="M144.145 24.4113L140.243 12.6201H142.586L145.351 21.4136L148.073 12.6201H150.442L146.566 24.4113V30.8413H144.154L144.145 24.4113Z" fill="#444444"/>
<g clip-path="url(#clip0_67020_375)">
<path d="M6.07 20.72V18.46C12.7536 17.5423 19.4937 17.0979 26.24 17.13C26.24 17.73 26.24 18.34 26.18 18.95C28.0976 18.099 30.1128 17.4877 32.18 17.13C30.8625 13.722 28.4618 10.8412 25.3471 8.93087C22.2325 7.02052 18.5764 6.1864 14.9414 6.55684C11.3064 6.92727 7.89379 8.48172 5.22852 10.9811C2.56325 13.4805 0.792971 16.7863 0.190002 20.39L6.07 20.72Z" fill="#FDC305"/>
<path d="M27.24 24.23C26.08 25.51 25.85 25.43 25.85 27.68C25.85 28.59 25.85 32.58 25.85 36.86C28.1425 35.346 30.0245 33.2879 31.328 30.8694C32.6314 28.4509 33.3158 25.7474 33.32 23C33.3068 21.9591 33.1997 20.9216 33 19.9C30.9282 21.1295 28.9967 22.5814 27.24 24.23Z" fill="#FDC305"/>
<path d="M6.36 25.72C6.36 25.72 2.57 24.28 1.17 23.89C0.787067 23.7693 0.396097 23.6757 0 23.61C0.108395 26.496 0.965588 29.3041 2.48739 31.7586C4.00919 34.2131 6.14326 36.2296 8.68 37.61L6.36 25.72Z" fill="#FDC305"/>
<path d="M26.29 17.12C26.3307 11.5986 25.862 6.08528 24.89 0.65C24.89 0.65 24.75 -0.64 24 0.41C23.4109 1.65814 23.0067 2.98539 22.8 4.35C18.5418 4.07577 14.2675 4.18957 10.03 4.69C9.24 2 7.85 0.75 7.18 1C6.51 1.25 6.46 4.31 6.46 4.31L6.13 18.41C12.8113 17.506 19.548 17.0749 26.29 17.12Z" fill="#F06351"/>
<path d="M12.41 14C12.41 13.91 13.41 14.68 13.82 14.92C14.23 15.16 14.43 15.34 14.43 15.51C14.43 15.68 14.16 15.85 13.8 15.85C13.44 15.85 12.89 15.73 12.8 15.58H13.74H14.03C13.4207 15.1294 12.8757 14.5978 12.41 14Z" fill="black"/>
<path d="M19.89 14.11L18.8 15.44C18.8 15.5 18.63 15.79 18.98 15.74C19.3942 15.6783 19.8023 15.5812 20.2 15.45C20.31 15.45 20.27 15.26 20.09 15.28C19.91 15.3 19.4 15.33 19.09 15.39L19.93 14.13C19.93 14.13 20 14 19.89 14.11Z" fill="black"/>
<path d="M16.75 20.2C17.2135 19.9958 17.5967 19.6443 17.84 19.2C18.12 18.55 17.84 18.29 17.4 18.2C16.7979 18.0902 16.1765 18.2116 15.66 18.54C15.27 18.9 15.32 19.26 15.61 19.54C15.9613 19.8062 16.3442 20.0279 16.75 20.2Z" fill="black"/>
<path d="M16.35 21.45C16.238 21.6785 16.0816 21.8825 15.89 22.05C15.6052 22.2791 15.2551 22.4122 14.89 22.43C14.3639 22.472 13.8406 22.3189 13.42 22C13.2223 21.8808 13.0436 21.7324 12.89 21.56C12.7895 21.4491 12.6669 21.3605 12.53 21.3C12.53 21.3 13.28 25.4 15.1 26.05C16.92 26.7 17.24 25.3 17.3 24.92C17.3602 23.7851 17.0742 22.6588 16.48 21.69C16.46 21.38 16.45 21.58 16.35 21.45Z" fill="#F06351"/>
<path d="M14.71 22.59C14.2453 22.5247 13.7989 22.3651 13.3982 22.1209C12.9975 21.8767 12.651 21.5531 12.38 21.17C12.3667 21.157 12.3561 21.1414 12.3489 21.1242C12.3417 21.1071 12.338 21.0886 12.338 21.07C12.338 21.0514 12.3417 21.0329 12.3489 21.0158C12.3561 20.9986 12.3667 20.983 12.38 20.97C12.393 20.9567 12.4086 20.9461 12.4257 20.9389C12.4429 20.9317 12.4613 20.928 12.48 20.928C12.4986 20.928 12.517 20.9317 12.5342 20.9389C12.5514 20.9461 12.5669 20.9567 12.58 20.97C13.0847 21.6642 13.8429 22.1313 14.69 22.27C15.0216 22.245 15.3426 22.1413 15.6261 21.9674C15.9096 21.7934 16.1474 21.5544 16.32 21.27L16.46 21.08L16.56 21.29C16.56 21.29 16.93 22.05 17.56 22.09C18.19 22.13 18.61 21.68 19.17 20.81C19.183 20.7967 19.1986 20.7861 19.2157 20.7789C19.2329 20.7717 19.2513 20.768 19.27 20.768C19.2886 20.768 19.307 20.7717 19.3242 20.7789C19.3414 20.7861 19.3569 20.7967 19.37 20.81C19.4023 20.8306 19.4255 20.8629 19.4348 20.9C19.4441 20.9372 19.4388 20.9766 19.42 21.01C18.78 22.01 18.15 22.45 17.54 22.41C17.308 22.3763 17.0866 22.2904 16.8926 22.1587C16.6986 22.0271 16.537 21.8531 16.42 21.65C16.2233 21.9245 15.9676 22.1514 15.6717 22.3141C15.3757 22.4767 15.0471 22.571 14.71 22.59Z" fill="black"/>
<path d="M26.24 18.92C24.4445 20.5437 22.7512 22.277 21.17 24.11C19.5987 25.9361 17.8238 27.5768 15.88 29C15.66 28.47 14.26 27.49 14.26 27.49C14.26 27.49 11.13 25.35 9.08001 23.67C7.97415 22.7373 6.92871 21.7353 5.95001 20.67L3.95001 20.56C6.84019 24.7655 11.0702 27.8676 15.95 29.36C16.81 29.22 19.22 27.5 21.02 26.1C23.1389 24.2819 25.124 22.3134 26.96 20.21C27.4625 19.621 27.8493 18.9425 28.1 18.21C27 18.6 26.24 18.92 26.24 18.92Z" fill="#F06351"/>
</g>
<defs>
<clipPath id="clip0_67020_375">
<rect width="33.32" height="37.61" fill="white"/>
</clipPath>
</defs>
</svg>
