<svg width="70" height="70" viewBox="0 0 70 70" fill="none" xmlns="http://www.w3.org/2000/svg">
<g clip-path="url(#clip0_95_1)">
<path d="M62.55 23.9C63.1272 22.9815 63.8944 22.1973 64.8 21.6C65.3 21.25 65.6 21.25 65.9 21.9C66.3 22.85 66.65 23.85 66.35 24.9C66.2954 25.0781 66.2851 25.2668 66.3199 25.4497C66.3548 25.6327 66.4338 25.8044 66.55 25.95C66.85 26.35 67.1 26.75 67.35 27.1C67.6902 27.5319 67.9109 28.0456 67.9899 28.5897C68.0689 29.1339 68.0034 29.6892 67.8 30.2C67.6164 30.6959 67.5817 31.2346 67.7 31.75C67.7999 32.245 67.7999 32.755 67.7 33.25C67.6596 33.6207 67.5095 33.9709 67.2691 34.2559C67.0286 34.5409 66.7086 34.7478 66.35 34.85C65.7104 34.9717 65.1396 35.3284 64.75 35.85C64.7028 35.9268 64.6365 35.9901 64.5577 36.0339C64.4789 36.0777 64.3901 36.1005 64.3 36.1C63.7 36.2 62.2 34.85 62.2 34.25V33.95C62.25 32.15 62.15 32 60.5 31.25C60.1546 31.1282 59.8452 30.9219 59.6 30.65C59.3 30.25 58.9 30.3 58.45 30.45C58 30.6 57.75 30.9 57.8 31.4C57.9508 32.6104 58.0009 33.8313 57.95 35.05C57.9533 35.1891 57.9875 35.3257 58.05 35.45C59.6 37.7 60.2 40.35 60.95 42.9C61.55 44.85 62.65 45.9 64.65 46.05C64.97 46.0755 65.2876 46.1257 65.6 46.2C66.0109 46.266 66.3926 46.4538 66.6956 46.739C66.9987 47.0242 67.2092 47.3938 67.3 47.8C67.65 48.85 67.45 49.1 66.4 49.1H63.15C62.7292 49.1213 62.3167 48.9778 62 48.7C61.4939 48.2729 60.9191 47.9348 60.3 47.7C59.6155 47.4473 59.0231 46.9943 58.6 46.4C58.0143 45.5817 57.3439 44.8275 56.6 44.15C55.2 42.7 53.7 41.3 52.4 39.8C51.4103 38.7779 50.8395 37.4221 50.8 36C50.8 35.55 50.7 35.35 50.2 35.55C50.0503 35.645 49.8773 35.6969 49.7 35.7C48.3 35.7 47.6 36.55 47.1 37.8C46.65 38.85 46.05 39.85 45.5 40.9C45.1881 41.5572 45.0178 42.2727 45 43C45 44.2 45.3 44.6 46.4 45C47.1 45.25 47.75 45.5 48.1 46.2C48.5 47 48.4 47.2 47.55 47.25H44.15C43.954 47.2694 43.7568 47.2267 43.5864 47.1281C43.4159 47.0294 43.2807 46.8796 43.2 46.7L42.3 45.2C42.0347 44.8086 41.8648 44.3605 41.8041 43.8916C41.7433 43.4227 41.7932 42.9461 41.95 42.5C42.1664 41.6317 42.1835 40.7258 42 39.85C41.8739 39.24 41.8848 38.6097 42.0318 38.0045C42.1788 37.3993 42.4582 36.8342 42.85 36.35C43.15 36 43.15 35.85 42.65 35.75C40.6054 35.3157 38.6233 34.627 36.75 33.7C36.7367 33.7 36.724 33.6947 36.7146 33.6853C36.7052 33.676 36.7 33.6632 36.7 33.65C35.1 33.05 34.8 33.15 34.35 34.8C33.95 36.2 33.55 37.6 33.25 39.05C32.9 40.65 33.3 42.15 33.8 43.65C34 44.25 34.6 44.2 35.05 44.35C36.05 44.65 36.9 45.05 37.3 46.1C37.65 46.9 37.6 47 36.75 47C35.9 47 35.05 46.95 34.15 47C33.3905 47.0137 32.6493 46.7667 32.05 46.3C29.65 44.7 28.95 42.25 28.75 39.6C28.65 37.95 27.75 36.65 26.7 35.4C26.5 35.15 26.3 35.05 26 35.25C24.9267 35.8418 23.8062 36.3435 22.65 36.75C20.2371 37.602 18.1198 39.1292 16.55 41.15C15.9638 41.8875 15.5842 42.7675 15.45 43.7C15.3 44.6 15.55 45 16.45 45.25C17.35 45.5 17.8 46 17.9 46.95C17.95 47.35 17.8 47.55 17.4 47.55H13.35C13.2174 47.5406 13.0891 47.4993 12.9759 47.4297C12.8628 47.36 12.7681 47.2641 12.7 47.15C12.0719 46.3724 11.7358 45.3995 11.75 44.4C11.7237 42.6724 11.8745 40.9468 12.2 39.25C12.2667 38.7418 12.4564 38.2576 12.7527 37.8394C13.0489 37.4212 13.4428 37.0815 13.9 36.85C16.85 35.45 18.4 32.8 19.8 30.05C20.1 29.5 19.85 29.4 19.35 29.45C17.9506 29.6442 16.6248 30.1952 15.5 31.05C14.0271 32.1244 12.6396 33.3113 11.35 34.6C9.9748 35.9968 8.15133 36.8643 6.19998 37.05C2.54998 37.25 0.849979 35.2 0.999979 31.9C1.03351 30.7748 1.4578 29.6964 2.19998 28.85C2.45799 28.5155 2.80985 28.2655 3.21061 28.1319C3.61138 27.9983 4.04287 27.9872 4.44998 28.1C5.19998 28.3 5.39998 28.7 5.09998 29.45C4.94998 29.75 4.74998 30 4.59998 30.3C4.38428 30.6065 4.21574 30.9435 4.09998 31.3C3.54998 32.8 4.29998 33.85 5.84998 34C7.49998 34.15 8.84998 33.45 10.1 32.45C11.6059 31.2441 12.9503 29.8493 14.1 28.3C14.9596 27.1687 16.042 26.2256 17.2804 25.529C18.5188 24.8325 19.8868 24.3971 21.3 24.25C22.45 24.1 23.45 23.6 24.55 23.3C26.6072 22.6728 28.7495 22.3692 30.9 22.4C31.896 22.4415 32.8883 22.2533 33.8 21.85C36.25 20.85 38.8 20.85 41.35 21.35C43.35 21.75 45.35 22.25 47.3 22.75C48.4605 22.9662 49.6537 22.9321 50.8 22.65C52.9943 22.0937 55.2389 21.7587 57.5 21.65C58.9812 21.5779 60.4576 21.8697 61.8 22.5C62.8 22.95 62.8 22.95 62.55 23.9Z" fill="black"/>
</g>
<mask id="mask0_95_1" style="mask-type:alpha" maskUnits="userSpaceOnUse" x="0" y="0" width="70" height="70">
<rect opacity="0.4" width="70" height="70" fill="#C4C4C4"/>
</mask>
<g mask="url(#mask0_95_1)">
</g>
<defs>
<clipPath id="clip0_95_1">
<rect width="67" height="28" fill="white" transform="translate(1 21)"/>
</clipPath>
</defs>
</svg>
