<svg width="70" height="70" viewBox="0 0 70 70" fill="none" xmlns="http://www.w3.org/2000/svg">
<g clip-path="url(#clip0_94_6)">
<path d="M45.2034 7H45.008C44.6778 7.18708 44.415 7.47392 44.2571 7.81959C43.968 8.37738 43.7453 8.96735 43.5937 9.57732C43.5612 9.76073 43.4688 9.92811 43.331 10.0531C43.1932 10.1782 43.0179 10.2538 42.8326 10.268C42.2658 10.366 41.7288 10.5924 41.2626 10.9301C40.7965 11.2678 40.4135 11.7078 40.1429 12.2165C39.7708 12.877 39.4526 13.5665 39.1914 14.2783C38.4611 16.1753 37.9006 18.134 37.2114 20.0464C36.8874 20.9175 36.872 20.9175 35.8949 20.9175C34.7274 20.9175 34.8097 20.7371 34.7943 22.0258C34.7943 22.433 34.9177 22.6392 35.3497 22.6186C35.4834 22.6186 35.684 22.5515 35.7354 22.7268C35.7869 22.9021 35.612 22.9794 35.5091 23.0825C34.8994 23.7029 34.1276 24.1388 33.2823 24.3402C32.3051 24.6031 31.3074 24.8093 30.356 25.1289C27.9131 25.9485 25.6554 27.0928 23.8966 29.0309C22.8681 30.2347 22.0445 31.6001 21.4589 33.0722C19.5714 37.5258 18.656 42.2165 17.9463 46.9536C17.612 49.1753 17.3754 51.4072 17.1954 53.6546C17.1029 54.7577 17 55.8763 17 57H34.1411C34.1696 56.7731 34.1283 56.5429 34.0229 56.3402C33.858 55.9289 33.5901 55.5672 33.2451 55.29C32.9 55.0128 32.4895 54.8295 32.0531 54.7577C31.6931 54.6753 31.652 54.567 31.8731 54.2835C32.2338 53.801 32.5103 53.2607 32.6909 52.6856C33.5291 50.2062 33.8531 47.6186 34.2594 45.0567C34.4889 43.0999 35.0894 41.2051 36.0286 39.4742C36.7611 38.2002 37.7382 37.0842 38.9034 36.1907C39.3303 35.866 39.3457 35.866 39.4177 36.4175C39.4691 36.7835 39.4794 37.1598 39.5051 37.5309C39.6595 39.9662 39.6285 42.4097 39.4126 44.8402C39.2184 46.7242 39.1926 48.6217 39.3354 50.5103C39.5399 52.7029 39.9304 54.8739 40.5029 57H47.3429C47.2536 56.442 46.9973 55.9243 46.6078 55.5156C46.2184 55.1069 45.7143 54.8264 45.1623 54.7113C44.5177 54.6087 43.8587 54.6438 43.2286 54.8144C42.92 54.8866 42.7914 54.8144 42.7657 54.4794C42.5529 51.7505 42.7261 49.0051 43.28 46.3247C43.966 43.2304 44.4912 40.1025 44.8537 36.9536C44.9887 35.6819 45.3881 34.4528 46.0263 33.3454C46.6383 32.2526 47.1731 31.1186 47.7749 30.0206C48.0138 29.6214 48.1575 29.1723 48.195 28.7083C48.2325 28.2443 48.1626 27.7779 47.9909 27.3454C47.852 26.9794 47.7183 26.6082 47.5486 26.2577C47.0343 25.2526 46.52 24.2577 46.0469 23.2423C45.7949 22.7268 45.8514 22.6649 46.412 22.6495C47.2503 22.6495 47.2503 22.6495 47.2657 21.8041C47.2657 21.6907 47.2657 21.5773 47.2657 21.4639C47.2657 21.1082 47.132 20.9124 46.7514 20.9485C46.4943 20.9485 46.2371 20.9485 45.9697 20.9485C45.6149 20.9485 45.512 20.799 45.5994 20.433C45.7729 19.838 46.1142 19.306 46.5823 18.9009C47.0503 18.4958 47.6252 18.2349 48.2377 18.1495C49.3772 18.0505 50.5251 18.1252 51.6423 18.3711C51.7712 18.4118 51.9109 18.4001 52.0312 18.3383C52.1515 18.2766 52.2427 18.1699 52.2851 18.0412C52.4909 17.5258 52.7171 17.0103 52.9486 16.4948C53.001 16.4034 53.0242 16.298 53.015 16.1929C53.0058 16.0878 52.9647 15.9881 52.8971 15.9072C51.2514 13.8144 49.4669 11.8608 47.0343 10.6082C46.9168 10.5575 46.8138 10.4781 46.7347 10.3773C46.6557 10.2765 46.6031 10.1574 46.5817 10.0309C46.444 9.29408 46.225 8.57487 45.9286 7.8866C45.7895 7.5199 45.5349 7.20865 45.2034 7V7Z" fill="black"/>
</g>
<mask id="mask0_94_6" style="mask-type:alpha" maskUnits="userSpaceOnUse" x="0" y="0" width="70" height="70">
<rect opacity="0.3" width="70" height="70" fill="#C4C4C4"/>
</mask>
<g mask="url(#mask0_94_6)">
</g>
<defs>
<clipPath id="clip0_94_6">
<rect width="36" height="50" fill="white" transform="translate(17 7)"/>
</clipPath>
</defs>
</svg>
