<svg width="151" height="38" fill="none" xmlns="http://www.w3.org/2000/svg"><path d="M50.224 29.494a7.25 7.25 0 01-1.206-4.51v-6.516a7.366 7.366 0 011.188-4.553c.799-1.037 2.163-1.553 4.092-1.547 1.93.006 3.236.46 3.92 1.364a5.875 5.875 0 011.145 3.902v1.53h-3.566v-1.66a8.755 8.755 0 00-.112-1.304 1.465 1.465 0 00-.405-.825 1.34 1.34 0 00-.99-.322 1.248 1.248 0 00-1.293.652 4.79 4.79 0 00-.292 1.911v8.273c-.04.655.075 1.31.336 1.911a1.265 1.265 0 001.249.634 1.154 1.154 0 001.206-.643 5.116 5.116 0 00.267-1.902V24.15h3.566v1.503a6.34 6.34 0 01-1.06 4.006c-.758.955-2.067 1.425-3.928 1.425-1.86 0-3.316-.522-4.117-1.59zM64.222 12.62h4.083l3.445 18.247h-3.394l-.611-4.031h-2.86l-.689 4.005h-3.445l3.47-18.22zm3.144 11.922l-1.085-7.334-1.077 7.334h2.162zm7.029-9.176h-2.79V12.62h9.233v2.746h-2.756V30.84h-3.695l.008-15.475z" fill="#111"/><path d="M88.084 12.62h7.003v1.894h-4.48v6.022h3.636v1.799h-3.635v6.682h4.522v1.824h-7.046v-18.22zm9.079 0h1.723l5.168 12.104V12.62h2.102v18.247h-1.611l-5.168-12.443v12.417H97.24l-.078-18.22zm11.776 0h6.994v1.894h-4.479v6.022h3.67v1.799h-3.635v6.682h4.496v1.824h-7.046v-18.22zm9.071 0h3.635a5.99 5.99 0 014.022 1.138c.862.756 1.284 1.99 1.284 3.702 0 2.317-.744 3.733-2.231 4.249l2.584 9.132h-2.446l-2.369-8.55h-1.956v8.55h-2.523v-18.22zm3.445 7.82c.83.081 1.66-.154 2.326-.66a3.113 3.113 0 00.706-2.355 5.097 5.097 0 00-.25-1.738 1.642 1.642 0 00-.861-.938 4.068 4.068 0 00-1.766-.304h-1.111v6.03l.956-.035zm8.89 9.054a8.096 8.096 0 01-1.094-4.648v-6.083a11.857 11.857 0 01.431-3.475 3.894 3.894 0 011.499-2.094 5.056 5.056 0 012.894-.73 4.494 4.494 0 011.941.241 4.534 4.534 0 011.66 1.045 6.12 6.12 0 011.102 4.023v.678h-2.369v-.565a9.942 9.942 0 00-.155-2.016 1.74 1.74 0 00-.654-1.069 2.567 2.567 0 00-1.482-.356 2.157 2.157 0 00-1.559.486 2.229 2.229 0 00-.663 1.287 13.042 13.042 0 00-.147 2.163v6.769a6.575 6.575 0 00.509 3.006 2.434 2.434 0 001.944.912 2.426 2.426 0 001.906-.99 7.096 7.096 0 00.525-3.171V23.62h-2.291v-1.799h4.565v9.02h-1.559l-.249-2.095a3.211 3.211 0 01-1.206 1.725 3.158 3.158 0 01-2.007.595 3.985 3.985 0 01-1.971-.328 4.02 4.02 0 01-1.57-1.245zm13.8-5.083l-3.902-11.79h2.343l2.765 8.793 2.722-8.794h2.369l-3.876 11.791v6.43h-2.412l-.009-6.43z" fill="#444"/><g clip-path="url(#clip0_67020_375)"><path d="M6.07 20.72v-2.26a143.265 143.265 0 0120.17-1.33c0 .6 0 1.21-.06 1.82a25.518 25.518 0 016-1.82A16.67 16.67 0 00.19 20.39l5.88.33zm21.17 3.51c-1.16 1.28-1.39 1.2-1.39 3.45v9.18A16.64 16.64 0 0033.32 23a17.302 17.302 0 00-.32-3.1 33.109 33.109 0 00-5.76 4.33zM6.36 25.72s-3.79-1.44-5.19-1.83A8.541 8.541 0 000 23.61a16.65 16.65 0 008.68 14L6.36 25.72z" fill="#FDC305"/><path d="M26.29 17.12A89.799 89.799 0 0024.89.65S24.75-.64 24 .41a14.22 14.22 0 00-1.2 3.94 70.34 70.34 0 00-12.77.34C9.24 2 7.85.75 7.18 1c-.67.25-.72 3.31-.72 3.31l-.33 14.1a143.211 143.211 0 0120.16-1.29z" fill="#F06351"/><path d="M12.41 14c0-.09 1 .68 1.41.92.41.24.61.42.61.59 0 .17-.27.34-.63.34s-.91-.12-1-.27h1.23A8.34 8.34 0 0112.41 14zm7.48.11l-1.09 1.33c0 .06-.17.35.18.3a7.351 7.351 0 001.22-.29c.11 0 .07-.19-.11-.17-.18.02-.69.05-1 .11l.84-1.26s.07-.13-.04-.02zm-3.14 6.09a2.3 2.3 0 001.09-1c.28-.65 0-.91-.44-1a2.43 2.43 0 00-1.74.34c-.39.36-.34.72-.05 1a5.34 5.34 0 001.14.66z" fill="#000"/><path d="M16.35 21.45a1.919 1.919 0 01-.46.6 1.73 1.73 0 01-1 .38 2.15 2.15 0 01-1.47-.43 2.302 2.302 0 01-.53-.44c-.1-.11-.223-.2-.36-.26 0 0 .75 4.1 2.57 4.75 1.82.65 2.14-.75 2.2-1.13a5.61 5.61 0 00-.82-3.23c-.02-.31-.03-.11-.13-.24z" fill="#F06351"/><path d="M14.71 22.59a3.44 3.44 0 01-2.361-1.466.14.14 0 01.031-.154.14.14 0 01.2 0 3.26 3.26 0 002.11 1.3 2.091 2.091 0 001.63-1l.14-.19.1.21s.37.76 1 .8c.63.04 1.05-.41 1.61-1.28a.14.14 0 01.2 0 .15.15 0 01.05.2c-.64 1-1.27 1.44-1.88 1.4a1.55 1.55 0 01-1.12-.76 2.26 2.26 0 01-1.71.94z" fill="#000"/><path d="M26.24 18.92a58.634 58.634 0 00-5.07 5.19A31.629 31.629 0 0115.88 29c-.22-.53-1.62-1.51-1.62-1.51s-3.13-2.14-5.18-3.82a34.139 34.139 0 01-3.13-3l-2-.11a22.57 22.57 0 0012 8.8c.86-.14 3.27-1.86 5.07-3.26a58.13 58.13 0 005.94-5.89 6.15 6.15 0 001.14-2c-1.1.39-1.86.71-1.86.71z" fill="#F06351"/></g><defs><clipPath id="clip0_67020_375"><path fill="#fff" d="M0 0h33.32v37.61H0z"/></clipPath></defs></svg>